<svg xmlns="http://www.w3.org/2000/svg" viewBox="0 0 512 512"><defs><style>.cls-1{fill:#32825a;}.cls-2{fill:#fff;}</style></defs><g id="Layer_2" data-name="Layer 2"><g id="Icon"><rect class="cls-1" width="512" height="512" rx="133.52"/><path class="cls-2" d="M200.42,160.73a6.54,6.54,0,0,0,8.67.52,78,78,0,0,1,101.55,4.07,6.57,6.57,0,0,0,9.1-.15L321,164a6.57,6.57,0,0,0-.4-9.64,96.65,96.65,0,0,0-120.42-4.59,6.57,6.57,0,0,0-.78,9.94Z"/><path class="cls-2" d="M216.05,176.36a6.58,6.58,0,0,0,8.43.7,57.47,57.47,0,0,1,71,3.9,6.51,6.51,0,0,0,8.86-.36h0a6.57,6.57,0,0,0-.27-9.54,69.27,69.27,0,0,0-87.27-4.7,6.54,6.54,0,0,0-.77,9.93Z"/><path class="cls-2" d="M232.56,192.87a6.53,6.53,0,0,0,7.76,1.11,35.72,35.72,0,0,1,39.17,3.2,6.56,6.56,0,0,0,8.69-.46l.53-.52a6.57,6.57,0,0,0-.56-9.77A48.91,48.91,0,0,0,233.38,182,6.55,6.55,0,0,0,232,192.3Z"/><path class="cls-2" d="M472,207.17a70.72,70.72,0,0,0-4.82-20.24c-7.56-18.78-21.34-29.37-28-33.82L300,53.57A71.9,71.9,0,0,0,256.5,38.11,66.56,66.56,0,0,0,214,53.55l-.07.05L74.88,153.07l-.11.07a66.55,66.55,0,0,0-27,28A65.27,65.27,0,0,0,41,207.22V340.58c.13,4.5,1.26,28.53,21.26,47.36s43.79,18.49,48.32,18.36h70.6c6.85-.72,25.64-1.74,44.4,9.67a69.29,69.29,0,0,1,20.19,18.78,1.89,1.89,0,0,1-.08,1.31c-2.16,3-9,4.75-13.22,3.67-1.18-.3-1.9,1.35-1,2.2L264.22,473c.43.42.78,1.09,1.7.82s.85-1,1-1.62l10.63-43.9c.27-1.19-1.23-2.18-2.05-1.29-3,3.21-8.77,4.79-12.23,3.44a2.25,2.25,0,0,1-1-1l-4.81-6.74s-3.33-4.23-6.77-7.73a87.91,87.91,0,0,0-8.7-7.73,90.68,90.68,0,0,0-20.29-11.59A92,92,0,0,0,184,388.9H103.77a50.42,50.42,0,0,1-29.91-12.56C58.51,362.54,57.54,344,57.43,340.58V207.16a50.72,50.72,0,0,1,5.8-19.26,51.24,51.24,0,0,1,18.32-19.31l.07,0L229.44,63.24a40.06,40.06,0,0,1,7.73-4.84,41.36,41.36,0,0,1,19.33-3.86,49.1,49.1,0,0,1,19.33,3.86,47.39,47.39,0,0,1,8.69,4.84c41.88,29.95,107,76.34,148.83,106.3a55.5,55.5,0,0,1,22.21,37.6,1,1,0,0,1,0,.17V340.58A52.36,52.36,0,0,1,442,373.44c-15.45,16.71-36.35,16.51-39.62,16.43h-110a1.27,1.27,0,0,1-.28,0,27.53,27.53,0,0,1-9.53-3.84c-18.42-11.92-14.87-42.58-14.51-45.3a1.93,1.93,0,0,0,0-.24,141.52,141.52,0,0,1,6.75-53.92.58.58,0,0,1,.05-.14,53.81,53.81,0,0,1,12.53-17.33c3.39-3.1,6.5-5.13,6.77-4.83.66.73-13.58,16-17.4,28-.24.76-.67,3.94,0,4.84,2.9,3.86,21.12-1.55,31.89-5.8,23.33-9.21,38.05-25,44.46-32.86a104.34,104.34,0,0,0,17.39-30c2.76-7.61,5.8-17.39,4.83-19.32s-37.4-1.43-64.74,13.53c-5.06,2.76-26.08,12.36-39.62,35.75L261.43,275a1.29,1.29,0,0,1-2.2,0l-10.46-16.57A115.42,115.42,0,0,0,186,207.22c-9.07-3.26-18.18-6.47-30.93-8.69a215.7,215.7,0,0,0-37-2.92,1.28,1.28,0,0,0-1.25,1.57,162.85,162.85,0,0,0,28.64,61.26,115.56,115.56,0,0,0,16.43,17.4,116.8,116.8,0,0,0,14.49,10.63A128.89,128.89,0,0,0,208.18,301c6.4,1.9,30,9.67,31.89,4.83,6.77-11.59-29.4-47.14-29-47.35,1.93-1,16.43,9.67,29,28,5.24,7.66,6.62,15.28,7.73,19.32,2.19,7.94,2.78,17,3.87,34.79,1.54,25.28,1.53,25.49,1.93,27.06,1.18,4.65,5.79,22.82,21.26,32.86,7.87,5.1,15.51,6.76,20.29,6.76H401.46c4.25-.08,38.1-1.27,58-29A69.21,69.21,0,0,0,472,340.58V207.29A.49.49,0,0,0,472,207.17Z"/></g></g></svg>