<svg xmlns="http://www.w3.org/2000/svg" viewBox="0 0 2005 2005"><defs><style>.cls-1{fill:#fff;}.cls-2{fill:#32825a;}</style></defs><g id="Layer_2" data-name="Layer 2"><g id="Simple_V1" data-name="Simple V1"><rect class="cls-1" width="2005" height="2005"/><path class="cls-2" d="M784.37,631.93a25.45,25.45,0,0,0,33.71,2c52.31-41.08,117.47-65.51,188.18-65.51,79.37,0,151.77,30.76,206.82,81.35a25.54,25.54,0,0,0,35.39-.6l4.74-4.74a25.58,25.58,0,0,0-1.57-37.5,376,376,0,0,0-468.39-17.86,25.57,25.57,0,0,0-3,38.67Z"/><path class="cls-2" d="M845.16,692.71A25.58,25.58,0,0,0,878,695.44a223.11,223.11,0,0,1,128.31-40.54c56.28,0,107.79,21,147.69,55.73a25.35,25.35,0,0,0,34.49-1.41h0a25.55,25.55,0,0,0-1.07-37.1c-48.66-43.51-111.92-69.85-181.11-69.85a269.27,269.27,0,0,0-158.35,51.54,25.49,25.49,0,0,0-3,38.65Z"/><path class="cls-2" d="M909.37,756.92a25.45,25.45,0,0,0,30.21,4.34,139,139,0,0,1,152.36,12.44,25.51,25.51,0,0,0,33.8-1.78l2-2a25.55,25.55,0,0,0-2.17-38,190.23,190.23,0,0,0-213-17.31,25.48,25.48,0,0,0-5.37,40.18Z"/><path class="cls-2" d="M1840.72,812.54a275.33,275.33,0,0,0-18.77-78.7c-29.41-73.06-83-114.25-109-131.57L1171.65,215.1A279.39,279.39,0,0,0,1002.5,155a258.82,258.82,0,0,0-165.27,60l-.26.2L296,602.12l-.45.28c-21.86,12.2-72.89,44.67-105,108.88a253.45,253.45,0,0,0-26.31,101.5v518.73c.5,17.47,4.91,111,82.69,184.19,77.36,72.81,170.32,71.92,188,71.42H709.05a4,4,0,0,0,.49,0c26.61-2.79,99.73-6.77,172.67,37.62a269.35,269.35,0,0,1,78.56,73s.92,3.39-.31,5.09c-8.42,11.72-34.93,18.49-51.44,14.29-4.58-1.17-7.37,5.24-4,8.54l127.49,120.93c1.69,1.65,3,4.25,6.63,3.19s3.31-4,3.84-6.28l41.35-170.78c1-4.61-4.78-8.47-8-5-11.58,12.5-34.1,18.63-47.54,13.37-2.37-.93-3.84-3.88-3.84-3.88L1006.26,1651S993.32,1634.54,980,1621a339.65,339.65,0,0,0-33.83-30.07,353.61,353.61,0,0,0-78.94-45.11,357.67,357.67,0,0,0-146.6-26.31H408.77l-.36,0c-17.35-1.21-70-7.18-116.35-48.85-59.71-53.69-63.45-125.75-63.9-139.08V813c0-.17,0-.33,0-.5a197.17,197.17,0,0,1,22.53-74.93A199.2,199.2,0,0,1,322,662.5l.26-.17,575-409.64a155.18,155.18,0,0,1,30.07-18.79,160.7,160.7,0,0,1,75.18-15,190.43,190.43,0,0,1,75.18,15,186.78,186.78,0,0,1,33.83,18.79c162.89,116.53,416,297,578.88,413.49a216,216,0,0,1,86.41,146.27,4.87,4.87,0,0,1,0,.66v518.4c-.73,17-5.4,76.74-52.62,127.8-60.1,65-141.4,64.24-154.12,63.9h-428a5.13,5.13,0,0,1-1.1-.11,107.44,107.44,0,0,1-37-14.92c-71.66-46.36-57.85-165.62-56.45-176.2a4.9,4.9,0,0,0,0-.94,551.65,551.65,0,0,1,26.25-209.75,5.2,5.2,0,0,1,.21-.55,208.58,208.58,0,0,1,48.75-67.39c13.15-12,25.25-20,26.31-18.8,2.57,2.83-52.81,62.31-67.66,109-.94,3-2.63,15.29,0,18.8,11.27,15,82.15-6,124-22.56,90.73-35.83,148-97.35,172.91-127.8,44.11-53.9,62.87-103.29,67.66-116.53,10.74-29.6,22.56-67.66,18.8-75.18s-145.49-5.55-251.85,52.63c-19.65,10.75-101.44,48.1-154.12,139.08q-18.6,32.13-37.21,64.27a5,5,0,0,1-8.54.17L972.43,1012A448.65,448.65,0,0,0,728.1,812.78c-35.28-12.69-70.69-25.2-120.29-33.84-51.54-9-104.65-11.6-144.13-11.34a5,5,0,0,0-4.86,6.09A633.42,633.42,0,0,0,570.22,1012a450.28,450.28,0,0,0,120.29,109,499.85,499.85,0,0,0,124,56.38c24.9,7.37,116.53,37.59,124.05,18.8,26.31-45.11-114.37-183.39-112.77-184.19,7.52-3.76,63.9,37.59,112.77,109,20.38,29.79,25.73,59.46,30.07,75.18,8.52,30.87,10.81,66.1,15,135.32,6,98.33,6,99.14,7.51,105.25,4.59,18.09,22.51,88.74,82.7,127.8,30.59,19.86,60.33,26.32,78.94,26.32h413.48c16.55-.32,148.23-5,225.54-112.77,41.53-57.92,47.84-118.37,48.86-146.6V813A3.77,3.77,0,0,0,1840.72,812.54Z"/></g></g></svg>