<svg xmlns="http://www.w3.org/2000/svg" viewBox="0 0 1353.85 2435.02"><defs><style>.cls-1{fill:#fff;}</style></defs><g id="Layer_2" data-name="Layer 2"><g id="Full-Ver-V1"><path class="cls-1" d="M501,385.08a20.54,20.54,0,0,0,27.21,1.64c42.23-33.17,94.84-52.89,151.93-52.89,64.08,0,122.53,24.83,167,65.67a20.61,20.61,0,0,0,28.57-.48l3.83-3.83a20.65,20.65,0,0,0-1.27-30.27A303.53,303.53,0,0,0,500.07,350.5a20.64,20.64,0,0,0-2.46,31.22Z"/><path class="cls-1" d="M550.06,434.16a20.64,20.64,0,0,0,26.47,2.2,180.4,180.4,0,0,1,222.83,12.27,20.46,20.46,0,0,0,27.85-1.15h0a20.61,20.61,0,0,0-.87-29.94c-39.29-35.14-90.36-56.4-146.22-56.4a217.46,217.46,0,0,0-127.85,41.61A20.58,20.58,0,0,0,549.85,434Z"/><path class="cls-1" d="M601.9,486a20.53,20.53,0,0,0,24.38,3.5,112.2,112.2,0,0,1,123,10.05,20.6,20.6,0,0,0,27.29-1.44l1.64-1.64a20.61,20.61,0,0,0-1.75-30.69,153.59,153.59,0,0,0-172-14,20.59,20.59,0,0,0-4.34,32.45Z"/><path class="cls-1" d="M1353.83,530.91a222.23,222.23,0,0,0-15.16-63.55c-23.74-59-67-92.24-88-106.22l-437-312.58A225.53,225.53,0,0,0,677.08,0,209,209,0,0,0,543.65,48.47l-.21.17L106.71,361c-.11.08-.23.15-.35.22-17.66,9.86-58.85,36.07-84.8,87.91A204.62,204.62,0,0,0,.32,531.09V949.9c.4,14.11,4,89.6,66.76,148.7,62.46,58.79,137.51,58.07,151.75,57.67H440.16l.4,0c21.48-2.25,80.51-5.47,139.41,30.36a217.62,217.62,0,0,1,63.42,59s.75,2.73-.25,4.11c-6.79,9.46-28.2,14.93-41.53,11.53-3.7-.94-6,4.23-3.22,6.9l102.93,97.64c1.36,1.33,2.44,3.43,5.35,2.57s2.68-3.21,3.1-5.07l33.38-137.88c.85-3.73-3.85-6.84-6.44-4.05-9.35,10.09-27.54,15.05-38.38,10.8a7.18,7.18,0,0,1-3.11-3.14l-15.1-21.14s-10.45-13.31-21.25-24.28a273.88,273.88,0,0,0-27.31-24.28,285.4,285.4,0,0,0-63.73-36.42,289,289,0,0,0-118.36-21.24h-252c-14-1-56.52-5.8-93.94-39.44C55.29,1018.84,52.27,960.66,51.91,949.9V531.3c0-.14,0-.27,0-.4a158.55,158.55,0,0,1,75.75-121.13l.21-.14L592.11,78.91a125,125,0,0,1,24.28-15.18,129.59,129.59,0,0,1,60.69-12.14,153.62,153.62,0,0,1,60.7,12.14,150.42,150.42,0,0,1,27.31,15.18C896.6,173,1101,318.66,1232.46,412.74a174.4,174.4,0,0,1,69.76,118.09,3.27,3.27,0,0,1,0,.54V949.9c-.6,13.69-4.37,62-42.49,103.18-48.52,52.47-114.16,51.86-124.43,51.59H789.82a4.41,4.41,0,0,1-.89-.09,86.55,86.55,0,0,1-29.91-12c-57.85-37.42-46.71-133.71-45.57-142.25a4.83,4.83,0,0,0,0-.76,445.42,445.42,0,0,1,21.19-169.34c.05-.16.11-.3.17-.45a168.58,168.58,0,0,1,39.36-54.41c10.62-9.73,20.38-16.12,21.24-15.17,2.08,2.28-42.64,50.3-54.63,88-.75,2.38-2.12,12.34,0,15.17,9.11,12.14,66.33-4.85,100.15-18.21,73.25-28.93,119.49-78.6,139.61-103.18,35.61-43.51,50.75-83.4,54.62-94.08,8.67-23.9,18.21-54.63,15.18-60.7S932.9,532.68,847,579.65c-15.86,8.68-81.9,38.84-124.42,112.29l-30.05,51.89a4,4,0,0,1-6.9.13l-32.86-52A362.14,362.14,0,0,0,455.54,531.09c-28.48-10.23-57.07-20.34-97.11-27.31-41.62-7.25-84.5-9.37-116.37-9.16a4,4,0,0,0-3.92,4.92,511.53,511.53,0,0,0,89.94,192.4,363.47,363.47,0,0,0,97.11,88,403.61,403.61,0,0,0,100.15,45.52c20.1,5.95,94.08,30.35,100.15,15.17,21.25-36.41-92.34-148-91-148.7,6.07-3,51.59,30.35,91,88,16.46,24,20.78,48,24.28,60.69,6.88,24.93,8.73,53.38,12.14,109.26,4.85,79.39,4.82,80,6.07,85,3.7,14.61,18.17,71.65,66.76,103.19,24.7,16,48.71,21.24,63.74,21.24h333.83c13.36-.25,119.67-4,182.09-91,33.53-46.76,38.62-95.57,39.45-118.36V531.29C1353.85,531.16,1353.84,531,1353.83,530.91Z"/><path class="cls-1" d="M234.05,1393.82v50H87.34c-25.86,0-37.31,14-37.31,33.92,0,17.39,8.91,33.92,42.4,33.92h67c78,0,96.25,43.25,96.25,84.38,0,48.33-25.86,84-91.16,84l-164.43.24V1630H166.21c27.13,0,39.43-14.84,39.43-35.62,0-18.66-9.75-35.62-44.95-35.62H94.13c-76.32,0-94.13-42.82-94.13-82.67,0-47.49,25.44-82.26,89-82.26Z"/><path class="cls-1" d="M572.27,1456.15c75.9,0,113.21,36,113.21,97.94V1680H640.11V1554.09c0-35.19-20.35-54.69-67.41-54.69H520.12V1680H474.75V1499.4H361.12c-3.81,0-5.51,2.12-5.51,6.36V1680H310.67v-189.1c0-26.29,8.9-34.77,31.37-34.77Z"/><path class="cls-1" d="M891.54,1456.15c56,0,78,31.37,78,73.77v105.15c0,32.23-8.48,45-46.22,45H818.62c-53,0-75-25.87-75-68.27,0-40.7,20.35-64.44,75.47-64.44H925.46v-17c0-17.39-9.75-30.95-34.34-30.95h-134v-43.25Zm33.92,168.75v-42H819.89c-23.74,0-32.22,9.75-32.22,26.29s8.9,27.14,31.37,27.14h94.13C922.07,1636.35,925.46,1633,925.46,1624.9Z"/><path class="cls-1" d="M1185.37,1456.15v43.25h-78.86c-19.93,0-28.83,9.32-28.83,28.83V1680h-44.94V1521.44c0-44.94,16.53-65.29,60.63-65.29Z"/><path class="cls-1" d="M1246,1456.15v-53h45.37v53h61.9v43.25h-61.9v106c0,25,8.9,33.5,30.1,33.5h31V1680h-40.28c-46.22,0-66.15-18.66-66.15-77.17V1499.4h-30.53v-43.25Z"/><path class="cls-1" d="M250.36,1771.32v50H132.49c-55.12,0-79.29,27.56-79.29,93.28,0,65.3,23.74,92.86,79.29,92.86H180c28,0,39.86-17,39.86-40.28,0-22.9-11.87-36.47-35.19-36.47H121v-43.67h68.69c50.88,0,75.89,31.38,75.89,81,0,50-25,89.47-89,89.47H132.49c-83.53,0-129.32-47.07-129.32-142.89,0-96.25,46.21-143.31,129.32-143.31Z"/><path class="cls-1" d="M485.82,1833.65v43.25H407c-19.92,0-28.83,9.32-28.83,28.83v151.79H333.18V1898.94c0-44.94,16.53-65.29,60.63-65.29Z"/><path class="cls-1" d="M722.13,1833.65c53,0,75.47,25.44,75.47,68.68,0,41.13-20.78,64.45-75.9,64.45H615.28v16.11c0,17.81,9.75,31,34.34,31h137v43.67h-137c-56,0-78-31.38-78-73.78v-76.32c0-42.4,22-73.77,78-73.77Zm-106.85,97.94H720.43c24.17,0,33.07-10.18,33.07-26.71,0-17-9.75-28-31.8-28H649.62c-24.59,0-34.34,13.56-34.34,30.95Z"/><path class="cls-1" d="M997.23,1833.65c53,0,75.47,25.44,75.47,68.68,0,41.13-20.77,64.45-75.89,64.45H890.38v16.11c0,17.81,9.76,31,34.35,31h137v43.67h-137c-56,0-78-31.38-78-73.78v-76.32c0-42.4,22-73.77,78-73.77Zm-106.85,97.94H995.53c24.17,0,33.08-10.18,33.08-26.71,0-17-9.76-28-31.8-28H924.73c-24.59,0-34.35,13.56-34.35,30.95Z"/><path class="cls-1" d="M1240.32,1833.65c75.9,0,112.79,36,112.79,97.94v125.93h-45.37V1931.59c0-35.19-20.35-54.69-67.42-54.69H1167c-3.81,0-5.51,2.12-5.51,6.36v174.26h-44.94v-189.1c0-26.29,8.9-34.77,31.37-34.77Z"/><path class="cls-1" d="M53,2148.82v116.6H199.31v-116.6h50.46V2435H199.31V2315.45H53V2435H3v-286.2Z"/><path class="cls-1" d="M428.39,2211.15c59.36,0,97.09,36.46,97.09,111.93S487.75,2435,428.39,2435H381.33c-59.79,0-97.1-36.47-97.1-111.94s37.31-111.93,97.1-111.93Zm-42.82,43.25c-39,0-56,20.35-56,68.68s17,68.27,56,68.27h38.58c38.58,0,56-19.93,56-68.27s-17.39-68.68-56-68.68Z"/><path class="cls-1" d="M610.83,2211.15v134c0,26.29,19.5,46.22,55.12,46.22h36.46c35.62,0,54.7-19.93,54.7-46.22v-134H801.2v135.68c0,51.72-33.07,88.19-97.09,88.19H662.55c-64,0-97.09-36.47-97.09-88.19V2211.15Z"/><path class="cls-1" d="M1055.93,2211.15v43.25H932.12c-20.77,0-29.25,8.47-29.25,25.43,0,15.69,6.78,24.17,31.8,24.17h52.57c61.91,0,77.59,28.41,77.59,63.18,0,39.85-20.77,67.84-73.35,67.84H861.32v-43.67H991.48c20.78,0,29.26-7.21,29.26-24.6,0-17.8-9.33-25-31.8-25h-53c-61.9,0-77.17-30.95-77.17-65.3,0-40.28,20.78-65.29,72.93-65.29Z"/><path class="cls-1" d="M1277.8,2211.15c53,0,75.47,25.44,75.47,68.68,0,41.13-20.77,64.45-75.89,64.45H1171v16.11c0,17.81,9.76,31,34.35,31h137V2435h-137c-56,0-78-31.38-78-73.78v-76.32c0-42.4,22-73.77,78-73.77ZM1171,2309.09H1276.1c24.17,0,33.08-10.18,33.08-26.71,0-17-9.76-28-31.8-28H1205.3c-24.59,0-34.35,13.56-34.35,30.95Z"/></g></g></svg>