<svg xmlns="http://www.w3.org/2000/svg" viewBox="0 0 3194.74 1368.54"><defs><style>.cls-1{fill:#32825a;}.cls-2{fill:#32835b;}</style></defs><g id="Layer_2" data-name="Layer 2"><g id="Full-Hor-V1"><path class="cls-1" d="M500.66,385.08a20.54,20.54,0,0,0,27.21,1.64c42.23-33.17,94.84-52.89,151.93-52.89,64.08,0,122.53,24.83,167,65.67a20.61,20.61,0,0,0,28.57-.48l3.83-3.83a20.65,20.65,0,0,0-1.27-30.27A303.53,303.53,0,0,0,499.75,350.5a20.64,20.64,0,0,0-2.46,31.22Z"/><path class="cls-1" d="M549.74,434.16a20.64,20.64,0,0,0,26.47,2.2A180.4,180.4,0,0,1,799,448.63a20.46,20.46,0,0,0,27.85-1.15h0a20.61,20.61,0,0,0-.87-29.94c-39.29-35.14-90.35-56.4-146.22-56.4A217.46,217.46,0,0,0,552,402.75,20.58,20.58,0,0,0,549.53,434Z"/><path class="cls-1" d="M601.58,486A20.53,20.53,0,0,0,626,489.5a112.2,112.2,0,0,1,123,10.05,20.61,20.61,0,0,0,27.3-1.44l1.63-1.64a20.61,20.61,0,0,0-1.75-30.69,153.59,153.59,0,0,0-172-14,20.59,20.59,0,0,0-4.34,32.45Z"/><path class="cls-1" d="M1353.51,530.91a222.51,222.51,0,0,0-15.15-63.55c-23.75-59-67-92.24-88-106.22l-437-312.58A225.48,225.48,0,0,0,676.76,0,209,209,0,0,0,543.33,48.47l-.21.17L106.4,361l-.36.22c-17.66,9.86-58.85,36.07-84.8,87.91A204.62,204.62,0,0,0,0,531.09V949.9c.4,14.11,4,89.6,66.77,148.7,62.45,58.79,137.5,58.07,151.74,57.67H439.85l.39,0c21.49-2.25,80.51-5.47,139.41,30.36a217.82,217.82,0,0,1,63.43,59s.74,2.73-.25,4.11c-6.8,9.46-28.21,14.93-41.54,11.53-3.7-.94-5.95,4.23-3.22,6.9L701,1365.77c1.36,1.33,2.44,3.43,5.35,2.57s2.68-3.21,3.1-5.07l33.39-137.88c.84-3.73-3.86-6.84-6.45-4.05-9.35,10.09-27.54,15.05-38.38,10.8a7.18,7.18,0,0,1-3.11-3.14l-15.1-21.14s-10.44-13.31-21.24-24.28a275.25,275.25,0,0,0-27.32-24.28,285.4,285.4,0,0,0-63.73-36.42,289,289,0,0,0-118.36-21.24h-252c-14-1-56.52-5.8-93.94-39.44C55,1018.84,52,960.66,51.59,949.9V531.3c0-.14,0-.27,0-.4a158.55,158.55,0,0,1,75.75-121.13l.21-.14L591.79,78.91a125,125,0,0,1,24.28-15.18,129.61,129.61,0,0,1,60.69-12.14,153.62,153.62,0,0,1,60.7,12.14,150.42,150.42,0,0,1,27.31,15.18C896.28,173,1100.63,318.66,1232.14,412.74a174.4,174.4,0,0,1,69.76,118.09,3.27,3.27,0,0,1,0,.54V949.9c-.6,13.69-4.37,62-42.49,103.18-48.52,52.47-114.15,51.86-124.43,51.59H789.5a4.41,4.41,0,0,1-.89-.09,86.55,86.55,0,0,1-29.91-12c-57.85-37.42-46.7-133.71-45.57-142.25a4.83,4.83,0,0,0,0-.76,445.42,445.42,0,0,1,21.19-169.34,3.52,3.52,0,0,1,.18-.45,168.37,168.37,0,0,1,39.35-54.41c10.62-9.73,20.38-16.12,21.24-15.17,2.08,2.28-42.64,50.3-54.62,88-.76,2.38-2.13,12.34,0,15.17,9.1,12.14,66.32-4.85,100.14-18.21,73.25-28.93,119.49-78.6,139.61-103.18,35.61-43.51,50.75-83.4,54.62-94.08,8.67-23.9,18.21-54.63,15.18-60.7s-117.47-4.48-203.34,42.49c-15.86,8.68-81.9,38.84-124.42,112.29l-30,51.89a4,4,0,0,1-6.9.13l-32.85-52A362.2,362.2,0,0,0,455.22,531.09c-28.48-10.23-57.07-20.34-97.11-27.31-41.61-7.25-84.5-9.37-116.37-9.16a4,4,0,0,0-3.92,4.92,511.53,511.53,0,0,0,89.94,192.4,363.47,363.47,0,0,0,97.11,88A403.61,403.61,0,0,0,525,825.47c20.11,5.95,94.08,30.35,100.15,15.17,21.25-36.41-92.34-148-91-148.7,6.07-3,51.59,30.35,91,88,16.46,24,20.78,48,24.28,60.69,6.88,24.93,8.73,53.38,12.14,109.26,4.85,79.39,4.82,80,6.07,85,3.7,14.61,18.17,71.65,66.77,103.19,24.7,16,48.7,21.24,63.73,21.24H1132c13.36-.25,119.67-4,182.09-91,33.53-46.76,38.62-95.57,39.45-118.36V531.29C1353.53,531.16,1353.52,531,1353.51,530.91Z"/><path class="cls-1" d="M1958,157.73v55H1796.58c-28.45,0-41,15.39-41,37.31,0,19.13,9.8,37.32,46.65,37.32h73.7c85.82,0,105.88,47.58,105.88,92.82,0,53.18-28.45,92.36-100.29,92.36l-182.73-.31v-55l184.6.27c29.85,0,43.38-16.33,43.38-39.18,0-20.53-10.73-39.19-49.44-39.19H1804c-84,0-103.55-47.11-103.55-91,0-52.25,28-90.49,98-90.49Z"/><path class="cls-1" d="M2333.86,226.29c83.49,0,124.54,39.65,124.54,107.75V472.58h-49.91V334c0-38.71-22.39-60.17-74.17-60.17h-57.83V472.58h-49.91V273.87h-125c-4.2,0-6.07,2.33-6.07,7V472.58h-49.44v-208c0-28.92,9.8-38.25,34.52-38.25Z"/><path class="cls-1" d="M2685.09,226.29c61.57,0,85.83,34.52,85.83,81.16V423.13c0,35.45-9.33,49.45-50.85,49.45H2604.86c-58.3,0-82.56-28.46-82.56-75.1,0-44.78,22.39-70.9,83-70.9h117.08V307.92c0-19.12-10.73-34.05-37.79-34.05H2537.23V226.29Zm37.32,185.65V365.76H2606.26c-26.12,0-35.45,10.73-35.45,28.92s9.8,29.85,34.52,29.85h103.55C2718.68,424.53,2722.41,420.8,2722.41,411.94Z"/><path class="cls-1" d="M3008.34,226.29v47.58h-86.76c-21.92,0-31.72,10.26-31.72,31.72v167h-49.44V298.13c0-49.45,18.19-71.84,66.7-71.84Z"/><path class="cls-1" d="M3076,226.29V168h49.91v58.3H3194v47.58h-68.1V390.48c0,27.52,9.8,36.85,33.12,36.85h34.05v45.25H3148.8c-50.84,0-72.77-20.53-72.77-84.9V273.87h-33.58V226.29Z"/><path class="cls-1" d="M1972,507.56v55H1842.35c-60.64,0-87.23,30.32-87.23,102.62,0,71.83,26.12,102.15,87.23,102.15h52.24c30.78,0,43.84-18.66,43.84-44.31,0-25.19-13.06-40.12-38.71-40.12h-70v-48h75.57c56,0,83.49,34.52,83.49,89.09,0,55-27.52,98.42-98,98.42h-48.51c-91.89,0-142.27-51.77-142.27-157.19,0-105.88,50.84-157.66,142.27-157.66Z"/><path class="cls-1" d="M2233.37,576.13v47.58h-86.75c-21.93,0-31.72,10.26-31.72,31.71v167h-49.45V648c0-49.44,18.19-71.83,66.7-71.83Z"/><path class="cls-1" d="M2495.66,576.13c58.31,0,83,28,83,75.56,0,45.25-22.86,70.9-83.49,70.9H2378.12v17.73c0,19.59,10.73,34,37.78,34h150.66v48H2415.9c-61.57,0-85.83-34.51-85.83-81.16v-84c0-46.64,24.26-81.16,85.83-81.16ZM2378.12,683.88H2493.8c26.58,0,36.38-11.2,36.38-29.39,0-18.66-10.73-30.78-35-30.78h-79.3c-27.05,0-37.78,14.92-37.78,34Z"/><path class="cls-1" d="M2800.63,576.13c58.31,0,83,28,83,75.56,0,45.25-22.86,70.9-83.5,70.9H2683.09v17.73c0,19.59,10.72,34,37.78,34h150.66v48H2720.87c-61.57,0-85.83-34.51-85.83-81.16v-84c0-46.64,24.26-81.16,85.83-81.16ZM2683.09,683.88h115.68c26.58,0,36.38-11.2,36.38-29.39,0-18.66-10.73-30.78-35-30.78h-79.29c-27.06,0-37.78,14.92-37.78,34Z"/><path class="cls-1" d="M3070.38,576.13c83.5,0,124.08,39.65,124.08,107.75V822.41h-49.91V683.88c0-38.72-22.39-60.17-74.17-60.17h-80.69c-4.2,0-6.07,2.33-6.07,7V822.41h-49.44v-208c0-28.92,9.8-38.25,34.52-38.25Z"/><path class="cls-1" d="M1753.83,857.4V985.67h160.93V857.4h55.51v314.85h-55.51V1040.71H1753.83v131.54h-55V857.4Z"/><path class="cls-1" d="M2169.39,926c65.31,0,106.82,40.12,106.82,123.15s-41.51,123.14-106.82,123.14h-51.77c-65.77,0-106.82-40.12-106.82-123.14S2051.85,926,2117.62,926Zm-47.11,47.58c-42.91,0-61.57,22.39-61.57,75.57s18.66,75.09,61.57,75.09h42.45c42.45,0,61.57-21.92,61.57-75.09s-19.12-75.57-61.57-75.57Z"/><path class="cls-1" d="M2372.72,926v147.4c0,28.92,21.46,50.84,60.64,50.84h40.11c39.18,0,60.17-21.92,60.17-50.84V926h48.52v149.27c0,56.9-36.39,97-106.82,97h-45.71c-70.44,0-106.82-40.12-106.82-97V926Z"/><path class="cls-1" d="M2865,926v47.58h-136.2c-22.86,0-32.19,9.33-32.19,28,0,17.26,7.47,26.59,35,26.59h57.84c68.1,0,85.36,31.25,85.36,69.5,0,43.84-22.86,74.63-80.7,74.63h-143.2v-48h143.2c22.86,0,32.19-7.93,32.19-27,0-19.59-10.27-27.52-35-27.52H2733c-68.11,0-84.9-34.05-84.9-71.83,0-44.32,22.86-71.84,80.23-71.84Z"/><path class="cls-1" d="M3111.72,926c58.3,0,83,28,83,75.57,0,45.24-22.85,70.9-83.49,70.9H2994.17v17.72c0,19.59,10.73,34,37.78,34h150.67v48H3032c-61.57,0-85.82-34.52-85.82-81.16v-84c0-46.65,24.25-81.17,85.82-81.17Zm-117.55,107.75h115.68c26.59,0,36.38-11.19,36.38-29.38,0-18.66-10.73-30.79-35-30.79H3032c-27,0-37.78,14.93-37.78,34.05Z"/><line x1="1530.74" y1="111.4" x2="1530.74" y2="1250.14"/><path class="cls-2" d="M1530.74,1273.27c-13.8,0-25-10.35-25-23.13V111.4c0-12.78,11.2-23.13,25-23.13s25,10.35,25,23.13V1250.14C1555.74,1262.92,1544.55,1273.27,1530.74,1273.27Z"/></g></g></svg>